<?xml version="1.0" encoding="utf-8"?>
<!-- Generator: Adobe Illustrator 27.0.1, SVG Export Plug-In . SVG Version: 6.00 Build 0)  -->
<svg version="1.1" xmlns="http://www.w3.org/2000/svg" xmlns:xlink="http://www.w3.org/1999/xlink" x="0px" y="0px"
	 viewBox="0 0 24 24" style="enable-background:new 0 0 24 24;" xml:space="preserve">
<style type="text/css">
	.st0{fill:none;stroke:#FFFFFF;stroke-width:2;stroke-linecap:round;stroke-linejoin:round;}
</style>
<g id="Layer_1">
	<path d="M19,24H5c-2.8,0-5-2.2-5-5V5c0-2.8,2.2-5,5-5h14c2.8,0,5,2.2,5,5v14C24,21.8,21.8,24,19,24z"/>
</g>
<g id="Layer_2">
	<path class="st0" d="M14.4,19.5H9.6c-0.8,0-1.4-0.6-1.5-1.3L6.8,5.5h10.4l-1.3,12.8C15.8,19,15.1,19.5,14.4,19.5z"/>
	<path class="st0" d="M7.6,12.1c1.3-1,3.1-1,4.4,0s3.1,1,4.4,0"/>
</g>
</svg>
